<?xml version="1.0" encoding="utf-8"?>
<!-- Generator: Adobe Illustrator 16.0.0, SVG Export Plug-In . SVG Version: 6.00 Build 0)  -->
<!DOCTYPE svg PUBLIC "-//W3C//DTD SVG 1.1//EN" "http://www.w3.org/Graphics/SVG/1.1/DTD/svg11.dtd">
<svg version="1.1" id="Layer_1" xmlns="http://www.w3.org/2000/svg" xmlns:xlink="http://www.w3.org/1999/xlink" x="0px" y="0px"
	 width="24.998px" height="22.002px" viewBox="0 0 24.998 22.002" enable-background="new 0 0 24.998 22.002" xml:space="preserve">
<g>
	<g>
		<path fill="#FFFFFF" d="M24.94,7.845V7.844C24.94,3.512,21.374,0,16.973,0c-0.482,0-0.956,0.041-1.415,0.124
			c-0.271,0.047-0.537,0.114-0.799,0.188l2.214,7.533H24.94z M7.31,8.928C7.273,8.331,7.084,7.369,6.339,6.472
			c-0.79-0.95-1.994-1.579-3.573-1.886C2.586,4.384,2.321,4.255,2.022,4.255H0.987C0.443,4.255,0,4.679,0,5.202
			s0.441,0.947,0.987,0.947h1.036c0.242,0,0.459-0.085,0.629-0.223c1.16,0.248,2.027,0.703,2.585,1.36
			C5.74,7.883,5.883,8.521,5.919,8.928H5.88c0,4.147,4.279,7.512,9.561,7.512c5.279,0,9.558-3.363,9.558-7.512H7.31z M11.673,16.773
			c-1.502,0-2.723,1.17-2.723,2.612s1.221,2.616,2.723,2.616s2.723-1.174,2.723-2.616S13.175,16.773,11.673,16.773z M11.673,20.666
			c-0.734,0-1.333-0.574-1.333-1.277c0-0.705,0.599-1.28,1.333-1.28c0.734,0,1.332,0.575,1.332,1.28
			C13.005,20.092,12.407,20.666,11.673,20.666z M19.016,16.773c-1.501,0-2.723,1.17-2.723,2.612s1.222,2.616,2.723,2.616
			c1.5,0,2.723-1.174,2.723-2.616S20.516,16.773,19.016,16.773z M19.016,20.666c-0.736,0-1.332-0.574-1.332-1.277
			c0-0.705,0.598-1.28,1.332-1.28c0.735,0,1.332,0.575,1.332,1.28C20.348,20.092,19.751,20.666,19.016,20.666z"/>
	</g>
</g>
</svg>
